#!OML:ASF F:\VICON\USERDATA\INSTALL\rory3\rory3.ASF
:FULLY-SPECIFIED
:DEGREES
36
root 0.5532941046460071 17.823882633500254 14.514623927829033 -3.665460382823743 -2.318388359271263 -1.0089719733267584
lfemur -7.6688687474359405 -1.541866421494777 -20.648931822583563
ltibia 23.75379237948011
lfoot -6.230077932371092 -4.134918720497721
ltoes -9.524885991279378
rfemur -17.384352825932808 1.7021161817843355 24.57618578336644
rtibia 59.939128474292346
rfoot -4.210567645439058 -6.2184876324942255
rtoes 6.062184875495301
lowerback 11.252372897387188 1.151504971766975 0.6084133895401386
upperback 0.038726884200637954 1.6643785987367874 1.1556308630331147
thorax -5.957331949056708 0.8368534237165426 -0.26229047280467643
lowerneck -16.591739945754004 -3.7316293489103813 -1.6155233110684746
upperneck 21.638391291480783 -5.304497048331883 2.274265171677871
head 9.824040597581382 -2.337747233937421 0.36373851809612406
lclavicle -2.5124690040542944e-15 -2.7501913199566718e-15
lhumerus -26.8610437563055 -0.23546309364115148 81.47743808255005
lradius 29.428820292741783
lwrist 10.105790107143642
lhand -29.743160596366035 21.065735996173675
lfingers nan
lthumb -2.9625238429580856 51.26383088448645
rclavicle -2.5067101367640985e-15 -2.744112000895957e-15
rhumerus -28.166437982531573 -16.375717337122694 -79.94322920385858
rradius 27.026820668094512
rwrist 6.4167706827317765
rhand -17.86693175863586 22.744420053881917
rfingers nan
rthumb 8.6540435465271 -7.724414856311631
37
root 0.6046589737948695 17.83760258122604 15.742927374797798 -4.091146385925207 -0.7518170109521756 0.8226737781439835
lfemur -5.083891633546633 -2.6776942058671094 -23.542153178699127
ltibia 24.350047915455846
lfoot -7.513891992195612 -2.920109506213799
ltoes -9.042829131965153
rfemur -20.33325070672269 0.17170269669364124 21.423779424252167
rtibia 60.93402331567168
rfoot -4.856246487823892 -5.565343499744731
rtoes 4.87941565266787
lowerback 11.097276304371922 0.8993124327828439 -0.7155359883439016
upperback 0.1117241335976391 1.1138258176107094 0.9795719534407739
thorax -5.9114058896907276 0.5915368822645922 1.0278380911542468
lowerneck -16.692465903015908 -3.632875842794495 -1.5963024007152127
upperneck 21.38695879855884 -5.106424025003249 2.323386674123363
head 9.779399794451093 -2.257963139456818 0.4241889157521289
lclavicle -2.5013588865764848e-15 -2.7403368424753517e-15
lhumerus -25.23330460779924 -1.1600122398003072 81.04024067526709
lradius 30.318641375115188
lwrist 9.676329649230983
lhand -29.52012790473379 20.513890843866125
lfingers nan
lthumb -2.7290756527343216 50.724396980585645
rclavicle -2.5026932053205866e-15 -2.739362907388661e-15
rhumerus -29.044370232618853 -18.06451212853036 -80.76102523395213
rradius 25.62532330690276
rwrist 6.932306099206473
rhand -17.796483086628324 22.559540228911462
rfingers nan
rthumb 8.715605760644234 -7.6978081160052705
38
root 0.637574892524539 17.856496202753164 16.903774872172505 -3.6411972043300773 0.44681066265047065 -0.7019397553635156
lfemur -3.2102704170509098 -3.4045149882390917 -22.70826850904938
ltibia 25.123148861921713
lfoot -8.93852645940703 -2.612417684624129
ltoes -9.090514190985536
rfemur -22.602396736094484 -0.35741527463732803 22.11108475052341
rtibia 59.83278836992972
rfoot -5.175418932961914 -5.091481307361988
rtoes 4.519602997537125
lowerback 10.859666504459303 0.5665666046273622 0.42745003477258137
upperback -0.029674147907735426 0.9006136772587305 1.4077934119211462
thorax -5.986230845997131 0.45378559795812323 1.1357717926637596
lowerneck -16.822494423854074 -3.4799683444016494 -1.638207170759709
upperneck 21.384779722050865 -4.811418932197115 2.2721936695949756
head 9.750797073797656 -2.1580403638803283 0.4809214859875566
lclavicle -2.502618719434064e-15 -2.7365702842608016e-15
lhumerus -23.96154888088776 -1.6488404294758854 80.66905129336375
lradius 31.281388801437558
lwrist 9.186675098419704
lhand -29.411705166170513 20.33348020784336
lfingers nan
lthumb -2.604302630809441 50.54973791977516
rclavicle -2.504071026821788e-15 -2.737009527979224e-15
rhumerus -30.175507526203265 -19.58803555543702 -81.31748132851641
rradius 24.841877697584945
rwrist 6.957037469007961
rhand -17.749702909922068 22.26666941629337
rfingers nan
rthumb 8.732255686092907 -7.560866646616206
39
root 0.6754596221436536 17.881891781105107 18.964701164706952 -3.418078198307074 0.8542938852219659 -0.8443917031732224
lfemur -1.3501832636065378 -3.6927590345838386 -22.83202173090768
ltibia 25.638044705471216
lfoot -9.483156030141998 -2.424957838675142
ltoes -9.242955566309528
rfemur -23.585189091297117 -0.28662144212831775 21.979063837662572
rtibia 57.37195635193398
rfoot -5.0163087465438805 -4.455422653880296
rtoes 5.262620014549325
lowerback 10.796347579655484 0.16750200641807247 0.208186358685177
upperback -0.10187956675652039 0.42085511235635864 1.5832963652701828
thorax -6.0982962317222835 0.26500707572460025 1.7296246516836722
lowerneck -16.83570135412694 -3.3163415326888734 -1.6469603340805676
upperneck 21.392359378745482 -4.497457769405248 2.1097795423236545
head 9.708974873137091 -2.0483729072339933 0.5052551250631767
lclavicle -2.5094540327910714e-15 -2.7399928324711317e-15
lhumerus -23.299028237342213 -1.8065723750266893 80.38414291837563
lradius 32.08525292207175
lwrist 8.090154692828934
lhand -29.304880821186998 19.323526318647968
lfingers nan
lthumb -2.508684597380828 49.48789983811706
rclavicle -2.4999156928404824e-15 -2.7339466498583423e-15
rhumerus -31.489701905935362 -20.590363043214257 -81.57198611122072
rradius 24.650850152199943
rwrist 6.35595166435667
rhand -17.6887508239222 22.173529581619917
rfingers nan
rthumb 8.686290453392942 -7.4719536970634035
40
root 0.7016955337171875 17.918727705073067 19.939957080140143 -2.952725388069809 0.8922946353347061 -0.8317786861356453
lfemur 0.5302504739431217 -3.6994151484817266 -22.88579737723086
ltibia 25.82239894536369
lfoot -10.3275593977938 -2.5959342823902505
ltoes -10.017060371074745
rfemur -24.256094626918745 0.06264054260346441 21.883130173954875
rtibia 54.30822052140891
rfoot -4.550371954797066 -3.8021255841555703
rtoes 5.004724256219995
lowerback 10.712213452973977 -0.05827521907457192 -0.052350619215838834
upperback -0.1538854339794479 0.013227342638934714 1.5790704601377543
thorax -6.172188207580875 0.03688442452630944 2.306586863762581
lowerneck -16.82283054789247 -3.1602786259041062 -1.698588821206184
upperneck 21.682230675322305 -4.197312174425363 1.8574639437765668
head 9.783453438536094 -1.9467615061946468 0.47898021708211813
lclavicle -2.5084237798410823e-15 -2.7372334519407756e-15
lhumerus -23.120310002056176 -1.8521071696509916 80.19577733651289
lradius 32.55392465997882
lwrist 7.309146768820116
lhand -29.207020979404838 19.21050236500388
lfingers nan
lthumb -2.4761568627328554 49.29173949632316
rclavicle -2.4920026612554037e-15 -2.7277219643865815e-15
rhumerus -32.922111916801605 -21.13885824456298 -81.48633361066904
rradius 24.987025940097443
rwrist 4.986155148249836
rhand -17.58996569704136 22.164357238652975
rfingers nan
rthumb 8.701888919225288 -7.609488215974557
41
root 0.7405127779728948 17.95453764524745 20.985363592183692 -3.014769059124086 1.0501926860890396 -0.1967523284454793
lfemur 3.242841923668937 -3.570499393317588 -23.51364936835316
ltibia 25.01826553826193
lfoot -8.414999646963906 -0.7337974431154519
ltoes -13.574244525913947
rfemur -24.521071791563255 -0.016735687178152325 21.07002131490259
rtibia 51.43318465982221
rfoot -4.135571173167026 -3.2457512110991162
rtoes 4.581804916835916
lowerback 10.619715584316308 -0.37032744412204255 -0.8660079914688563
upperback -0.04584785558139978 -0.8126833379546461 1.6726818228075002
thorax -6.019249967532253 -0.34267238753471796 3.061206302657143
lowerneck -16.732539624540276 -3.018792479015685 -1.8107202226518235
upperneck 22.000273478799667 -3.9236401682616906 1.6416484709084078
head 9.886407424372711 -1.8622250744446838 0.4592886434012656
lclavicle -2.5061841027170437e-15 -2.7336891469905885e-15
lhumerus -23.244928354544346 -1.9613396243793448 80.14542346420338
lradius 32.531041253009505
lwrist 7.3067765353185825
lhand -29.27734496208145 19.116718905350275
lfingers nan
lthumb -2.5317742589706174 49.33931918254008
rclavicle -2.489114795548587e-15 -2.7243901859745876e-15
rhumerus -34.24999460061647 -21.345973425054154 -81.06868774665116
rradius 25.681478720091278
rwrist 3.102618117165513
rhand -17.54196144162118 22.08413219527135
rfingers nan
rthumb 8.716007104521616 -7.6709557999657445
